<?xml version="1.0" encoding="UTF-8"?>
<svg id="Layer_2" data-name="Layer 2" xmlns="http://www.w3.org/2000/svg" viewBox="0 0 553.49 220.6">
  <defs>
    <style>
      .cls-1 {
        letter-spacing: -.02em;
      }

      .cls-2 {
        letter-spacing: -.03em;
      }

      .cls-3 {
        fill: #202020;
      }

      .cls-4 {
        stroke: #000;
        stroke-miterlimit: 5;
        stroke-width: .37px;
      }

      .cls-5 {
        font-family: CherryBlossoms-Tight, 'Cherry Blossoms';
        font-size: 83px;
      }

      .cls-6 {
        letter-spacing: -.05em;
      }
    </style>
  </defs>
  <g id="Layer_1-2" data-name="Layer 1">
    <g>
      <text/>
      <g>
        <path class="cls-3" d="m505.19,110.13c.21.58.69.24.55-1.31l-.83-1.07.28,2.38Z"/>
        <path class="cls-3" d="m505.56,99.55c-.79-1.75-1.98-3.59-2.4-2.26,1.17,1.55.99,2.03,2.24,3.79.4,1.53.14,2.75-.16,2.52.31.52.09,2.41.65,3.21.49-2.07.18-4.72-.87-7.26.06-.61.38-.1.54,0Z"/>
        <path class="cls-3" d="m383.82,14.19l.95.33c-.25-.12-.58-.23-.95-.33Z"/>
        <path class="cls-3" d="m288.34,1.63c.73,0,1.04-.07,1.08-.14-.68.03-1.24.07-1.08.14Z"/>
        <path class="cls-3" d="m271.86.64c.35.02.65.03.97.05-.37-.07-.75-.11-.97-.05Z"/>
        <path class="cls-3" d="m383.82,14.19l-2.45-.85c-.23.21,1.24.5,2.45.85Z"/>
        <path class="cls-3" d="m495.73,80.97c.31.42.62.74.9,1.04-.24-.36-.51-.68-.75-1.04-.05,0-.09,0-.15,0Z"/>
        <path class="cls-3" d="m424.65,26.22l.73.29c.25,0,.49-.02.73-.06l-1.46-.22Z"/>
        <path class="cls-3" d="m454.42,39.94c-.64-.38-1.19.09-1.58.21.5-.04,1.05.1,1.64.37.07-.11.06-.29-.06-.58Z"/>
        <path class="cls-3" d="m493.84,73.48l.63.68c-.16-.18-.44-.47-.63-.68Z"/>
        <path class="cls-3" d="m402.55,18.47c-.02-.11-.11-.23-.22-.32-.02.08.06.19.22.32Z"/>
        <path class="cls-3" d="m491.72,143.13s.07.04.1.07c.05-.19.05-.26-.1-.07Z"/>
        <path class="cls-3" d="m506.98,110.13l.02.52c.13.06.25.12.38.12l-.4-.64Z"/>
        <path class="cls-3" d="m241.62.97c.06,0,.08,0,.13,0,.79-.13.34-.09-.13,0Z"/>
        <path class="cls-3" d="m56.58,146.23c-.68-1.5.21-.52,1.05.23.83.76,1.53,1.33.36-.78.03.56-3.4-2.98-1.41.55Z"/>
        <path class="cls-3" d="m495.36,80.24c-.24-.36-.47-.72-.71-1.08.32.5.52.84.71,1.08Z"/>
        <path class="cls-3" d="m57.99,145.68h0s-.25-.43-.25-.43c.1.18.16.28.24.43Z"/>
        <path class="cls-3" d="m172.76,11.61c.17.08.46.11.76.13-.04-.06-.21-.11-.76-.13Z"/>
        <path class="cls-3" d="m224.05,3.93l-1.28.05c.51,0,.92-.02,1.28-.05Z"/>
        <path class="cls-3" d="m147,19.65c-.68.16-.94.15-1.81.53.09,0,.19,0,.3-.01.3-.19.72-.38,1.51-.52Z"/>
        <path class="cls-3" d="m120.67,29.35c.16-.01.35-.05.53-.08.25-.12.55-.25.81-.38l-1.34.46Z"/>
        <path class="cls-3" d="m423.96,189.32c.63-.04,1.06.02,1.41.1-.57-.29,3.13-1.94-1.41-.1Z"/>
        <path class="cls-3" d="m496.05,80.76c-.23-.04-.43-.19-.68-.52.18.26.35.5.52.74.13.01.22-.02.17-.22Z"/>
        <path class="cls-3" d="m147.55,25.12c-1.4.42-2.81.82-4.2,1.27,1.18-.34,2.71-.79,4.2-1.27Z"/>
        <path class="cls-3" d="m228.3,212.03l1.01.02c-.39-.05-.74-.07-1.01-.02Z"/>
        <path class="cls-3" d="m131.17,30.88c-.81.06-1.64.24-2.47.46-.15.12-.33.23-.41.35l2.87-.81Z"/>
        <path class="cls-3" d="m425.39,189.43s-.01,0-.01,0c0,0,0,0,.01,0Z"/>
        <path class="cls-3" d="m450.75,175.76c-3.64,1.98-1.3,1.7-1.83,2.58-4.29,2.53-2.34.5-4.05.85-2.65,1.61-4.45,3.37-6.56,4.33-.22-.06-.65.08-.25-.31-2.68,2.04-8.89,4-12.13,6.24-.3.03-.46.01-.55-.02.75.19,1.01.58,1.01.92-1.75.7-3.05,1.81-3.92,1.52,1.08-.4,1.09-.66,1.52-1.03l-1.75.95c-1.96-.15,2.41-1.24,2.18-1.83-3.46,1.68-7.45,3.85-10.31,4.61-.85-.57,6.39-2.57,2.45-1.94,1.47-.4,2.92-.85,4.38-1.28-3.71,0,2.61-.88-.86-1.06-5.67,1.85-6.12,2.69-11.85,4.36-1.14.85.63.51-.5,1.35-7.87,3.36-6.98.03-12.65,2.83-1.41.94-1.73,2.15-6.18,2.75l1.23-1.28c-5.63,1.37-2.87,2.15-8.93,2.99.96-.61,4.36-1.39,3.48-1.29-4,.22-2.57,1.19-5.53,1.87l-.8-.66c-5.98,1.52-12.53,3.48-19.25,4.84.33-.31,1.44-.76-.18-.73-8.42,1.93-18.21,2.86-26.53,3.31l-3.08,1.07c-.74.08-1.4-.16-.62-.39-3.25.07-.12.47-1.64.9-1.83.24-2.47-.16-1.33-.49-5.62,1.21-16.16,2.73-22.24,2.27l1.16-.27c-4.71-.03-5.23,1.73-9.63,1.25l.83-.16c-10.21.11-21.52.77-29.29-.47-1.51,1.03-10.08-.75-10.79.63-2.9-.47-3.93-.78-5.25-1.06-1.32-.28-2.95-.54-7.02-1.06-2.18-.2-3.32.65-6.04.6v-.75s-3.74.47-3.74.47l-1.87-1.06-2.55-.05c1,.15,2.11.54,1.94.74-1.99-.02-4.39-.4-6.29-.81-1.9-.44-3.3-.91-3.33-1.1-3.13-.14-6.26-.33-9.39-.54.25-.27,1.82-.15,3.07-.19-5.06.1-.8-.9-5.43-.83.59.25-.39.39-.52.53-2.2-.77-7.34-1.56-11.17-2.01l.81-.39c-6.83-1.28-14.46-2.36-22.06-4.1,2.68.84,1.86,1.58-.4,1.16l-.72-.98c-1.55.14,2.27.83-.83.73-2.83-.75-1.71-1.32-.02-1.19l-3.51-.55c-.15-.28.69-.2.97-.44-1.53.14-5.73-2.22-7.97-1.95l-.13-.28c-7.51-2.02-10.96-2.78-17.02-4.65-.32.6-2.65-.28-4.61-.38-4.36-1.69-9.04-3.95-14.27-5.97-3.79-1.15-1.28.11-3.08-.19-.02-.34-1.33-1.04-2.27-1.56-.94-.53-1.52-.89-.1-.52-3.1-1.3-5.08-2.13-7.27-3.04-2.18-.93-4.58-1.91-8.49-3.62.7.65,1.59,1.21,1.01,1.16-1.44-.59-3.01-1.86-2.67-2.01l.39.13c-4.45-1.8-9.05-4.92-13.25-8.07-4.22-3.15-8.03-6.32-11.4-8.1l.37.21c-2.19-1.42-4.36-2.88-6.47-4.43-2.62-2.46,1.92,1.07.18-.97-3.49-2.39-5.85-4.75-7.9-7.09-2.05-2.35-3.87-4.63-6.18-7.18-.85-2.67-3.48-6.46-5.75-10.75-2.25-4.27-4.05-9.07-4.18-12.59l-.33.48c-.77-1.68-.21-2.18-.3-3.49-.33.24-.05,1.98-.49.92-1.57-7.51-.79-15.67,1.92-23.14,2.71-7.5,7.24-14.29,12.38-20.3.93-1.11,1.45-1.9,1.77-2.54.32-.65.44-1.16.61-1.7.39-1.03.94-2.22,3.97-4.47l-.93,2.06c3.82-4.56,8.5-8.56,13.42-12.17,4.91-3.63,10.04-6.9,14.95-10.21-.52.52-.42.72-1.41,1.31,2.42-.79,8.02-4.53,7.87-4.94,1.66-.81.58.18,1.7-.13,2.36-.86,5.28-3.51,6.74-3.55.24-.01-.55.47-.95.71,1.34-.98,6.93-3.15,5.23-3.11,4.18-1.55,7.7-3.68,11.15-4.62,1.88-1.57,7.25-2.39,7.59-3.63.04.57,1.95.11,4.17-.65,2.23-.74,4.77-1.79,6.04-2.46-.8.61,2.44-.43,1.53.35,3.06-.99,5.83-2.02,5.13-2.41,6.04-.45,11.23-4.25,14.9-3.46,9.14-2.89,17.76-5.14,26.23-6.9-.12,1.09-9.36,1.88-8.77,2.96,7.92-2.04,12.43-3.78,20.51-4.76,2.1-.17-1.11.65-1.78.94,8.02-1.7,15.68-2.1,22.86-3.44,0,.1-.78.29-1.51.45,1.43-.18,3.34-.18,3.13-.66l-1.38.28c-2.36-.49,5.53-2.07,5.77-2.45-2.31,1.62,7.22-.26,3.5,1.86.93-.17,2.1-.49,1.86-.81,1.41-.01,1.87.15.48.63,5.11-.67,3.25-1.03,7.91-1.34,0,.24-.94.4-1.4.71,2.32-.63,4.67-1.22,8.62-1.21-.23.16.24.32-.94.37,6.75-.37,11.5-1.7,18.95-1.33-2.18,1.06,2.53.33,2.93,1.23,1.33-.1,2.66-.19,3.99-.27l-1.6-.45c3.5.03,6.6-.6,9.61-.24l-2.61.33c2.19-.02,4.38-.05,6.56-.03l-3.71-.44c3.56-.39-.35-1.16,4.31-.78-.95.07,3.51.1,5.32.73h-.01c1.74-.21,3.55-.45,6.13-.08.66.32-.59.97-.17,1.18,1.75-.68,8.2.27,10.42-.36-.73.13-.81.6-.58.72l1.48-.5c1.6.32,1.83.43,1.54.79,4.86.51-1.45-1.29,4.28-.29-.46,0-.25.12-1.2.13,5.78.74,11.24.7,16.52,1.63,1.46,1.08-4.66-.33-2.96.65,7.66.72,15.97.97,23.29,2.43l-1.36-.32c1.24-1.1,5.37,1.55,9.18,1.67-.93-.08-1.32.47-1.05.38,4.98,1.14,10.3,1.68,17.93,3.05l-1.01.11c2.87.95,7.66,2.03,10.76,3.01,1.02-.08,2.79.48,1.83-.29,4.6,2.21,9.22,3.33,13.74,4.44,4.51,1.12,8.88,2.28,12.79,4.53-1-.36-2.48-.58-1.69-.3,2.41.75,4.8,1.54,7.18,2.37-.36-.74-.79-.69-2.13-1.65,1.02.01,3.1.57,4.86,1.26-3.32-.9-.3.83.94,1.69-.16-.25.37-.24.32-.44,3.27,2.45,1.06-.83,5.77,1.94l-.38.16c1.92.65,3.78,1.09,5.73,2.07.55.96-2.09-.62-2.44-.19,1.4.61,2.9.96,4.33,1.41,1.43.43,2.79.94,3.89,1.85-1.24-.43-2.93-1.24-4.18-1.63,2.4,1.98,2.78,1.98,4.73,3.08l-.19-.11c1.5.86,2.95,1.79,4.43,2.68l-1.07-.79c4.18.31,6.99,3.42,11.95,5.19-4.84-1.71-1.02.09-1.74.51,1.02.84,2.58,2.11,1.99,1.98,2.37.8,3.14,2.56,6.43,3.78-.01.28,2.1,1.51,1.31,1.68,2.66,1.68-.36-.77.02-.85,2.22,1.07,4.36,3,6.66,5.1,2.28,2.14,4.71,4.44,7.6,6.45,1.16.96,2.09,1.72,2.93,2.35.81.66,1.53,1.19,2.24,1.72,1.38,1.08,2.74,2.14,4.67,4.23.9,1.71-1.65-.66-1.65-.66,1.69,2.56,3.05,4.37,4.9,6.58-.5-.37-.3.22-.06,1.1,1.28,1.88,1.58.83,2.8,3.62-.49-.32-1.19-.68-1.96-1.49,1.55,2.17,3.18,4.31,4.53,6.78-.06.83-1.28-1.27-1.93-2.02.37.68.79,1.47,1.22,2.27.41.82.83,1.66,1.22,2.44.74,1.58,1.44,2.91,1.87,3.28-.11-.67-.27-1.32-.42-1.99.42,1.07-.33.73-.72-.01-.67-1.18-1.01-2.07-1.11-2.73-.11-.66-.01-1.07.06-1.18l.9,1.79c.12-.6,0-1.38-.34-2.24-.36-.85-.85-1.81-1.46-2.77-1.23-1.92-2.78-3.91-3.86-5.61.58.29,1.18.58,1.76.9-.99-1.03-1.93-2.07-2.97-3.04-.29-.87-.18-1.7,1.1-.13-1.26-2.7-1.77-1.92-2.84-4.25-.1-.27.01-.2.2-.02-.64-.71-1.35-1.37-2.03-2.05.52.3.25-.82,1.25.64-2.83-4.4-6.04-5.75-6.86-7.64l.35.26c-2.65-2.42-2.94-2.35-3.07-2.15-.14.22-.16.62-2.39-.86-.49-1.23-.97-2.49-1.5-3.74l-1.02.11c-.55-.49-1.63-1.46-1.24-1.52-2.45-1.33.17.53-1.37-.09-.59-.68-1.37-1.38-2.22-2.07-.86-.67-1.78-1.33-2.63-1.95-1.7-1.21-3.11-2.25-3.1-2.97-1.36-.26,2.52,2.3-.79.46-.09-.82-1.03-1.39-2.23-2.03-1.22-.63-2.71-1.31-3.92-2.41,1.19-.04,3.59,1.92,1.17-.32-1.12-.06-2.44-.91-3.78-1.93-1.36-.99-2.75-2.13-4-2.71-.27.35-1.61-.28-3.41-1.25-1.81-.93-4.08-2.19-6.2-3.07.42-.18-7.53-4.2-11.35-6.13l.17-.09c-1.11.48-5.08-1.39-8.13-2.37.31-.45.93-.44,2.63-.02l-2.8-1.1c-.77,0-1.69-.21-3.55-.79l.94-.36c-3.77-1.4-7.83-2.05-12.57-4.1-.46.5,3.32,2.92-1.95,1.62-.09-.38-.1-.99,1.29-.68-.46-.1-1.66-.24-2.51-.67l2.24.13c-2.15-.95-1.31.07-3.07-.55.18-.45-1.22-.75-.85-1.02.47.09,1.5.69,2.24.73-1.98-.75-4.34-1.74-5.05-2.34.1.32-.19.61-1.68.23-3.85-1.08-1.15-.93-3.33-1.82-1.02.04-3.39-.95-3.65-.29-1.13-.31-1.25-.69-1.63-1-1.04-.12-3.39-.7-5.21-1.1-1.83-.38-3.14-.56-2.1.09l.5.18c-.1-.01-.21-.03-.34-.05h.02s-.02,0-.02,0c-6.73-.94-13.61-3.59-20.28-4.56l.06-.23c-3.99-.5-8.82-1.46-11.73-1.4-1.17-.19-2.69-.88-2.15-1.08-3.06-.28-3.43-.09-7.77-1.1,3.11.02-1-.52,3.17.14-3.92-.76-4.77-1.29-9.1-1.17,1.52-.42-2.89-1.16-4.8-1.17l2.73.76c-2.13-.17-3.97-.42-5.85-.69l1.11-.69c-8.05-1.87-14.81.24-20.89-1.82-2.19.42,4.4.69,2.43,1.22-3.73-.37-7.57-1.76-8.75-1.81-5.13-.72-4.86.94-10.22.43.68.31,1.3,1.09-2.72,1.25-3.74-.21-4.59-1.3-2.21-1.5.9,0,1.33.1,1.29.2,1.22-.07,2.81-.14,1.33-.5l-.5.27c-1.86-.36-7.03-.4-5.81-.86-2.85.22-1.22.45.88.64-4.82-.49-7.53-.11-12.5-.35.79.15,1.52.49.73.49-7.28-.29-3.2.58-8.12.78-2.81-.37.98-1.08-3.97-.57-3.04-.21-.67-.74.53-1.01-2.26.33-4.37.32-6.25.24-1.88-.1-3.52-.28-4.82-.25l2.38-.36c-1.42.21-2.59.27-3.78.33l1.39.5c-1.4-.03-2.59.04-2.58-.21-1.42.46,1.16.89-1.67,1.57-1.88-.17-5.64.67-6.34-.02,5.88-.15-.7-.73,4.25-1.18-.95.16-2.12.22-3.53.22-.22-.07.19-.17.57-.24-5.66-.24-2.52,1.03-8.32,1.52.7-.49-1.42-.69-2.36-.52,2.34-.2,1.18.61-.93,1.14-3.75.05-4.01.65-5.96.82l2.23-.07c-.71.5-2.57.64-5.13,1.07-.26-.31,2.32-.5,1.38-.54-2.78,1.07-6.57-.02-10.5,1.02-1.89-.03-.29-.78-1.94-.75-4.4,1.18-4.94.11-9.57,1.31,1.45.35,1.65.17-1.55,1.27,2.54-.57,5.09-1.1,7.65-1.61l-4.82,1.59c2.32-.37,4.85-1.11,6.26-1.23-2.29.82-2.07.64-.88.95-3.31-.39-6.22,1.46-9.98,1.5l-.13-1.43c-5.64.34-9.67,2.47-16.86,3.63l2.34-.24c-.84.74-4.37,1.01-6.62,1.75.11-.52-1.37-.35-2.41-.42.2.3-5.2,1.2-5.61,2.3l-3.3.19c-5.76,1.24-6.13,3.04-11.58,4.45,1.49-.97-1.08-.58,2.46-1.99-1.81.52-3.47.91-3.4,1.24-1.14.04-4.82,2.13-6.6,2.25-.69.45-.79.99-2.81,1.62-.25-.02-.07-.23-.07-.23.07.23-3.03,1.37-1.11,1.28-2.98.21-6.81,1.59-10.49,3.05-1.85.72-3.65,1.49-5.32,2.08-1.66.63-3.2,1.11-4.49,1.3-3.73,1.76-8.18,3.96-11.53,5.62.15-.23-.09-.22.57-.48-4.83,1.9-2.24,2.6-7.65,4.88-3.01.74,2.55-1.83.77-1.21-1.49-1.04-6.14,3.56-9.98,4.83l.77-.58c-2.89,1.11-6.01,4.37-10.13,7.11,0,0,.12-.25-.11-.21-2.35,2.57-7.28,6.64-10.69,9.96.7-1.45,1.44-1.64.33-1.55-1.55,1.47,1.12.35-1.95,3.28-1.24.68-3.68,2.58-4.42,2.41.93-.97,1.93-1.89,2.9-2.82-2.12.78-3.79,3.63-5.34,5.09l-.09-.46c-1.05,1.15-1.79,2.07-2.36,2.89-.57.82-1.02,1.49-1.43,2.21-.85,1.42-1.76,2.85-3.72,5.54l.63-.4c-1.29,3.5-2.2,2.2-3.51,5.66l-1.38.47c-.26.55-.6,1.32-.95,2.24-.38.91-.78,1.95-1.16,3.07-.82,2.22-1.51,4.71-2.13,6.77.07-1.26.42-3.13,1-5.03.56-1.91,1.29-3.86,1.86-5.35-.28.54-.67,1.25-1.05,2.08-.37.83-.78,1.73-1.13,2.63-.33.9-.63,1.77-.85,2.5-.19.74-.3,1.34-.3,1.67.11-.48.24-1.02.36-1.56.16-.53.35-1.04.6-1.46-.44,3.03-1.37,6.75-2.27,11.4-.82-.6-1.62,2.46-1.91,6.16-.15,1.84-.2,3.83-.22,5.58-.05.88-.02,1.69-.07,2.41-.04.71-.14,1.33-.25,1.79.86,4.27,1.8,8.43,3.19,12.67,1.38,4.23,3.24,8.53,5.97,12.73-.67-3.74,1.59,2.44,2.51,1.09,1.38,1.82,1.86,2.54,1.91,2.75,1.14,2.02,2.34,4.02,3.65,5.96.76,1.53-1.69-1.43-1.78-1.08,1.58,1.98,1.85,2.45,1.9,2.83.07.36-.05.61.97,1.97-.07-.87,1.73.8,3.65,2.95-.8-1.12-1.6-2.22-2.35-3.38,2.71,2.28,3.59,3.53,4.49,4.8.9,1.27,1.82,2.57,4.78,4.56-.68-.35-1.35-.72-2.01-1.11,1.45,1.11,4.05,3.25,6.76,5.21,2.73,1.93,5.58,3.67,7.38,4.16.43.5.91,1.3-.47.51,7.05,5.09,16.98,8.93,22.61,12.5l-.74.03c1.48.63,2.79.64,4.44,1.82-.16.09-.74.05-.08.39.81.27,4.12,1.22,5.96,2.28l-1.82-.37c7.46,3.86,12.19,4.13,18.8,6.32-.39,1,5.68,3.54,8.75,4.72l-.16.11c9.23,3.13,16.05,4.03,24.84,5.81,2.56,1.23,7.13,2.47,12.15,3.6,5.02,1.14,10.48,2.2,14.84,3.29-1.32-.43.37-.78,1.95-.61,2.03.57,5.84.21,5.36,1.13l-.74-.14c1.41,1.21,5.73,1.62,9.06,2.1l.73-1.19c4.23,1.54,10,2.06,15.26,2.41,5.26.36,10.03.53,12.36,1.54,2.14-.14,4.77.03,6.9-.15l-.16.68c5.87.53,8.81.78,16.1.85l-1.5.45c4.12.17,5.24-1.82,9.02-1.8l1.12,1.04c7.15.08,14.43.91,21.49-.22-.11.15-.31.46-1.47.53,3.37-.03,13.08.2,11.79-1.16.06.45,1.91.38,4.22.11,2.31-.3,5.08-.77,6.99-1.12l-.55.72c3.19-1.13,3.28-1.32,7.79-1.97,1.08,0,.99.45-.45.41,3.61.03,2.73-.87,7.1-.96l-1.57.59c3.69-.32,3.37-.52,5.34-1.25,2.28-.51,6.98-.66,7.6-.12.45-.42,2.39-1.18,4.57-1.31.32.19-.44.44-.83.56,6.2-.39,8.98-2.11,13.28-2.15.12.21.42.27.78.28-4.85.8-8.78,1.34-8.42,1.24.09.62,4.05.13,1.04,1.45,3.1-.92,8.31-2.84,12.18-3.24.2.03.39.05.54.12l-.38.14c.89-.09,1.67-.31,2.39-.55,1.23-.13,2.02-.2,3.19-.42.55.41,4.53-.62,6.48-1.02-.3-.63,2.26-1.08-.24-1.11.32-.02-.35.17-1.63.46-.29.08-.63.16-.81.24.03-.02.08-.05.12-.09-1.27.27-2.93.64-4.82,1.02,1.47-.63,3.01-1.26,5.23-1.32.91-.62,1.9-1.31,2.47-1.65,2.85.38,8.06-.32,8.9.08,5.81-1.75,13.79-3.79,17.07-6.12,1.6-.63,2-.2,2.67-.2-.91.42-2.06.72-2.52,1.05,1.61-.62,4.04-1.42,6.13-2.16,2.09-.77,3.83-1.52,4.08-2.07,4.23-1-2.05,1.57,3.55-.48l-.67.52c5.79-1.22,10.1-3.41,14.48-5.73,4.38-2.33,8.85-4.72,15.11-6.69-.86.29-1.29.43-1.52.38,6.88-2.79,13.59-6.53,20.02-10.63,6.44-4.1,12.6-8.53,18.64-12.79,3.36-2.53,3.3-3.29,4.86-5.35l1.17-.09c.83-1.25,1.7-2.44,2.47-3.7,1.92-2.43,3.95-4.18,6.08-6.2,2.06-2.06,4.2-4.44,5.75-8.14-.31.21-.62.42-.95.62.78-1.18,1.84-3.15,2.65-4.79.83-1.62,1.42-2.91,1.6-2.57.05-.3-.07-1.05.58-1.97l.39.07c.72-2.23,1.23-4.52,1.67-6.79.81-2.56,1.1-2.29,1.48-2.3.35-.02.86-.33,1.53-4.33.16-1.5.07-3.66-.15-5.27-.25-1.62-.53-2.69-.67-2.14-.06,1.19-.3,3.01-.73,3.07,0-.88-.07-1.77-.11-2.65-.55-.25-1.12-.86-1.65-.62-.26.12-.53.45-.78,1.12-.25.67-.48,1.7-.83,3.2.07.72.1,1.43.11,2.15.01.72.06,1.45.02,2.17l-.8,1.25c.22-1.18.43-2.35.56-3.54-.38.97-.52,1.78-.59,2.54-.06.75.03,1.47,0,2.21-.37.27-.71.8-1.01,1.59-.04,1.42-.07,2.89-.24,4.33-.58.33-.2-2.06-1.37.5-.23,2.03,1.62-1.43.72,1.76-1.26,1.73-1.39.99-2.03,3.38-.41.18-.35-.36-.07-1.28-.52,2.13-2.47,5.12-2.53,6.38-1.61,1.54-3.91,6.24-4.7,5.4-.1.35-.51,1.23-1.05,2.24-.57.98-1.25,2.1-1.9,2.87.71-1.81-.52-.38-2.01,1.24-1.51,1.62-3.32,3.41-3.47,2.58-.27.67-.82,1.48-1.54,2.34-.75.84-1.64,1.78-2.64,2.7-1.99,1.86-4.27,3.79-5.99,5.52.16-.24.46-.71.83-.93-2.19,1.62-3.04,1.82-4.57,2.68.3.98-3.03,3.66-4.65,5.4-3.3,1.11,1.08-2.06-.3-2.2.29.27-.81,1.24-1.82,2.13-1.03.86-1.97,1.65-1.31,1.62-2.47.91-2.03.94-3.56.97.23,1.25-1.93,1.42-3.42,3.1-3.52,1.34-1.38-.49-4.77,1.8-1.87.61,1.1-1.5,1.1-1.5Zm-91.62,32.52s0-.01,0-.01c.83-.16,1.54-.31,1.99-.4-.41.09-.99.2-1.98.41Zm-8.13,1.39c1-.14,2.23-.33,3.54-.55.32.18.06.47-.77.6.42-.23-1.52-.05-2.77-.04Zm18.11,1.52c-1.28.36-1.74.32-1.94.21.61-.14,1.32-.3,2.25-.54.03-.03.1-.08.14-.11-.1.15-.21.3-.44.44Z"/>
        <path class="cls-3" d="m371.25,209.84c.18-.05.28-.1.52-.16-.28,0-.54,0-.8,0-.14.1-.29.21-.41.3.23-.05.48-.1.69-.15Z"/>
        <path class="cls-3" d="m384.94,14.58l-.17-.06c.14.06.26.12.33.18-.11-.06-.1-.08-.17-.12Z"/>
        <polygon class="cls-3" points="237.47 212.53 237.46 212.7 238.19 212.61 237.47 212.53"/>
        <path class="cls-3" d="m427.6,30.72c.06.09.19.21.48.39,0-.05-.22-.21-.48-.39Z"/>
        <path class="cls-3" d="m445.38,38.96c.79.48,1.57.98,2.35,1.48-.99-.68-1.74-1.14-2.35-1.48Z"/>
        <path class="cls-3" d="m458.36,46.53c.22,0,.32-.05.4-.1l-.02-.02-.38.12Z"/>
        <path class="cls-3" d="m225.58,8.34c-.2.02-.4.05-.58.09-1.34.29-.43.12.58-.09Z"/>
        <path class="cls-3" d="m296.87,4.49c-.76.09-1.52.18-2.31.23,1.27.1,2.26.16,2.31-.23Z"/>
        <path class="cls-3" d="m148.02,24.98s0,0,0-.01c-.16.05-.3.1-.47.15l.46-.14Z"/>
        <path class="cls-3" d="m291.24,4.61c1.27.17,2.33.17,3.32.11-1.04-.08-2.27-.18-3.32-.11Z"/>
        <path class="cls-3" d="m501.49,92.68l.21.67s.09,0,.13.04l-.34-.71Z"/>
        <path class="cls-3" d="m501.83,93.39l.34.71c-.12-.34-.23-.63-.34-.71Z"/>
        <path class="cls-3" d="m502.82,95.63c-.22-.51-.41-1.02-.65-1.52.2.54.35,1.22.65,1.52Z"/>
        <path class="cls-3" d="m492.3,75.59l-.33-.03c.11.07.23.08.33.03Z"/>
        <path class="cls-3" d="m488.47,71.01c.91,1.1,1.91,3.05,3.23,4.52l.27.03c-.42-.26-.96-1.22-1.59-2.19-.6-.99-1.29-1.99-1.9-2.36Z"/>
        <path class="cls-3" d="m471.72,51.82c1.34,1.08,2.68,2.15,3.98,3.28-.54-.76-1.26-1.78.63-.37-2.32-2.33-2.17-1.98-2.05-1.62.1.37.13.78-2.55-1.28Z"/>
        <path class="cls-3" d="m458.59,42.73c2.43,1.33.17-.34.37-.4-1.64-.68-2.04-.84-.37.4Z"/>
        <path class="cls-3" d="m349.9,7.01l.37-.57c-2.12-.23-.06.23-.37.57Z"/>
        <polygon class="cls-3" points="327.79 7.36 329.78 7.96 330.82 7.51 327.79 7.36"/>
        <polygon class="cls-3" points="315.3 1.79 316.24 1.77 312.68 1.72 315.3 1.79"/>
        <path class="cls-3" d="m125.06,26.88l.88.47c1.29-.65,1.26-1.57-.88-.47Z"/>
        <path class="cls-3" d="m57.22,74.93c-.84.53-2.44,2.37-2.89,3.83,1.05-1.61,2.42-2.98,2.89-3.83Z"/>
        <polygon class="cls-3" points="214.94 216.33 213.24 216.37 216.41 216.55 214.94 216.33"/>
      </g>
      <text class="cls-5" transform="translate(151.09 94.76)"><tspan class="cls-6" x="0" y="0">F</tspan><tspan class="cls-1" x="25.07" y="0">o</tspan><tspan x="42.41" y="0">x &amp; Rabbit</tspan><tspan class="cls-2" x="63.29" y="72">F</tspan><tspan x="90.01" y="72">itness</tspan></text>
      <path d="m125.43,168.18c-.08-.1-.3-.86-.51-1.66l-.35-1.47.48-.61c.26-.34.73-1.15,1.07-1.8.32-.65.93-1.53,1.32-1.95l.72-.75-.46-.19c-.26-.1-.57-.18-.72-.18-.26.02-4.66,1.28-4.69,1.36,0,.02-.1.14-.21.29-.1.13-.29.99-.43,1.9q-.26,1.64-1.13,2.65c-.89,1.04-1.18,1.18-2.47,1.23q-.54.03-.59-.75c-.08-1.1.18-2.07,1.26-4.98.83-2.2,1.07-2.66,1.63-3.22.67-.65.7-.67,3.7-1.31,3.29-.7,4.87-1.2,4.87-1.53,0-.13-.51-1.26-1.15-2.52l-1.15-2.3-.89-.43c-1.04-.49-1.34-.46-2.17.27l-.56.49-2.14-.1c-1.96-.1-2.22-.14-3.1-.57l-.94-.49-1.95.26c-1.52.19-2.14.22-2.92.08-1.07-.19-5.47-1.82-5.84-2.17-.29-.27-.1-2.38.26-2.65.13-.11.81-.22,1.53-.27.89-.05,1.47-.16,1.79-.37.27-.16,1.34-1.26,2.39-2.46,1.56-1.79,2.09-2.27,2.87-2.66.53-.27,1.28-.73,1.66-1.02.54-.43.85-.54,1.4-.54.67,0,.72-.03,1.45-1.04.54-.75,1.15-1.32,2.19-2.06,2.51-1.76,2.57-1.76,2.41.1-.1,1.07-.06,1.26.16,1.36.3.11,1.64-.51,3.06-1.42l1.01-.65.56.26c.64.3.65.45.22,1.09-.19.24-.54.94-.78,1.55-.38.91-.43,1.23-.34,1.77.06.37.16.7.21.75s2.07.4,4.52.78l4.44.7,5.01-.7,5.03-.72,1.01-.64c.56-.35,1.47-.93,2.03-1.28.88-.56,1.4-.72,4.15-1.36,1.74-.4,3.86-.89,4.74-1.12,1.36-.35,1.91-.4,4.2-.4h2.63s2.68,1.29,2.68,1.29l2.7,1.29,3.91-.11,3.91-.11,5.57-2.3c3.06-1.28,6.43-2.74,7.5-3.27,1.82-.91,2.03-1.05,3.48-2.59,1.23-1.28,1.6-1.58,1.76-1.42.14.14.11.34-.16.91-.19.4-.35.75-.35.8,0,.03.41-.08.91-.26.56-.19,1.56-.8,2.66-1.63,2.14-1.61,2.46-1.8,2.57-1.52.05.11-.06.65-.22,1.2-.19.64-.24,1.04-.14,1.1.19.11.11.19,1.48-1.61,1.69-2.22,1.95-2.3,1.77-.57-.1.93-.29,1.39-1.71,4.04-1.45,2.7-1.68,3.03-2.47,3.64-.46.38-.86.72-.86.75,0,.05.32.03.7-.02.45-.08.75-.05.81.06.16.27-1.09,1.79-2.76,3.34-1.44,1.32-1.5,1.4-1.29,1.76.21.34.18.4-.41.91-.35.3-1.77,1.13-3.14,1.82l-2.51,1.28-3.16.62c-1.74.34-3.46.67-3.81.73-.41.06-1.72-.05-3.53-.32-2.52-.35-3.11-.51-5.12-1.26-1.24-.48-2.3-.81-2.33-.75-.06.14.35,4.82.45,4.91.05.05,1.16.32,2.49.61,1.34.29,2.51.61,2.59.69.1.1.22.51.3.93.1.51.57,1.45,1.5,2.92l1.34,2.17,1.66.86,1.66.88,1.98-1.15c1.79-1.02,2.09-1.13,3.13-1.24,1.12-.1,1.16-.1,1.31.27.06.21.19.81.24,1.34l.11.96-.91,1.23-.91,1.23-1.21.27c-.67.16-1.56.3-2.01.32-.77.03-.83.06-1.52.93-.4.49-1.07,1.12-1.5,1.37-.69.4-1.01.46-2.6.56l-1.82.11-1.52-.67-1.5-.69-1.36-2.09c-1.26-1.96-1.4-2.12-2.23-2.54-.65-.32-1.13-.43-1.8-.43-.49,0-2.04-.14-3.45-.32-2.28-.3-2.65-.4-3.83-.97-1.07-.53-1.52-.88-2.6-2.03l-1.31-1.39-1.4.46c-.77.26-2.66.91-4.2,1.48-2.89,1.05-8.22,2.49-10.45,2.81l-1.28.19-.18,1.52c-.21,1.85-.26,1.95-1.02,2.47l-.61.43-4.53-.26c-3.91-.21-4.64-.22-5.44-.02-.53.11-.99.27-1.04.32-.06.06-.38,1.12-.7,2.36-.48,1.8-.67,2.31-.96,2.51-.21.13-.94.69-1.66,1.21-1.64,1.26-1.9,1.39-2.11,1.13Zm58.45-9.21c.05-.08,0-.16-.13-.16-.59,0-2.51-1.39-3.8-2.74l-1.37-1.45-.59.21c-.32.1-.57.21-.57.26,0,.03.14.37.34.73.48.97,2.36,2.23,4.23,2.84,1.63.51,1.77.54,1.9.32Z"/>
      <path id="path9208" class="cls-4" d="m415.05,125.55c.16-.06.49-.16.65-.22.1,0,.3,0,.4,0,.09.04.27.13.36.17l.17.11c.08.06.25.18.33.24.08.07.25.2.34.27.07.08.22.23.29.31l.21.11c.09.08.27.23.36.3.09.08.27.24.36.32.09.08.27.25.35.33.09.08.26.25.35.33.09.09.26.25.34.34.09.08.25.25.34.34.08.08.25.25.33.34s.25.26.33.35c.08.09.25.27.33.36.08.1.24.29.32.38.08.1.23.32.3.42l.15.23c.07.11.21.34.29.46l.14.24c.07.11.2.35.27.46l.07.26c.07.1.22.29.29.38l.07.25c.07.1.21.29.29.38l.08.25c.07.09.22.28.29.37.07.1.21.31.28.42l.1.24c.08.08.25.24.33.32.08.09.25.26.33.34.09.08.27.23.36.3.07.08.2.25.27.33l.2.12.12.2.3.02.3.03.28.13c.2.08.61.24.82.31l.32.08c.32.38.72.49,1.2.32.16.03.49.1.65.13.2.07.61.2.81.27l.28.1c.1.07.3.21.41.28l.26.05c.11.06.32.19.43.26l.21.14c.1.07.29.2.4.27.09.07.28.21.37.29.09.07.28.22.38.3l.19.15c.09.08.27.24.36.32.09.08.26.25.34.33.08.09.24.26.33.35l.11.22c.08.08.25.23.33.3.07.09.22.28.29.37.07.1.22.28.29.38.07.1.22.29.29.39l.15.21c.07.1.21.3.28.4.07.1.21.31.28.41l.14.22c.07.11.2.33.27.43.06.11.19.34.25.45l.12.25c.05.13.16.38.21.51l.06.29.06.3c-.12.42-.12.84,0,1.26-.03.14-.1.42-.13.56-.05.12-.14.37-.18.49l-.12.23c-.07.1-.2.3-.27.4-.09.08-.28.24-.37.31l-.21.15c-.11.06-.35.18-.46.25l-.26.11c-.19.07-.58.19-.77.26-.15.03-.46.08-.61.11l-.31.03c-.44-.27-.79-.19-1.05.26-.16.02-.48.05-.64.07-.46-.21-.84-.12-1.15.27-.16.02-.48.06-.64.07-.2.08-.59.24-.78.32h-.31c-.18.09-.53.25-.71.33l-.23.14c-.1.07-.29.22-.4.29-.07.09-.21.28-.28.37l-.13.2c-.06.11-.17.34-.23.45l-.11.26c-.07.18-.22.55-.29.73l-.03.31c-.41.27-.52.64-.34,1.11,0,.24-.01.71-.01.95-.5.2-.63.53-.39.97.32.52.75.97,1.2,1.39.32.5.96.26,1.36.04h.31c.24.03.71.08.95.1.33.45.96.54,1.42.24h.32c.24.04.72.1.96.12.41.38,1.01.48,1.52.25.24.02.73.07.97.09.31.38.69.47,1.15.27.24.02.72.06.96.07.3.39.68.49,1.13.28.16.02.48.06.64.07.31.38.69.47,1.15.27.16.02.47.07.63.09.19.06.56.19.76.25h.3s.3.04.3.04c.17.08.51.24.68.32h.3s.31,0,.31,0c.18.08.54.23.72.3l.3.03.3.05c.19.08.58.23.77.31h.32c.19.09.57.26.76.35l.31.02c.16.13.48.38.64.51l.29.1c-.04.13-.11.38-.15.51-.06.09-.19.28-.25.38-.06.08-.16.25-.21.33-.05.08-.14.23-.18.31-.04.08-.11.24-.15.32l-.08.35v.19c0,.09.01.28.02.37.03.1.09.28.12.38.05.1.15.3.2.4.06.11.19.35.25.46.02.14.05.43.07.57-.02.14-.08.41-.1.55-.05.1-.14.31-.19.42-.43-.14-.85-.1-1.26.11-.56,0-1.12-.02-1.68-.03-.32-.39-.71-.48-1.16-.27-.16-.02-.46-.07-.62-.09l-.11-.28h-.3c-.16-.01-.47-.02-.63-.02l-.32-.03c-.2-.08-.61-.23-.81-.3l-.32-.08c-.2-.07-.6-.21-.8-.29l-.29-.09c-.11-.06-.33-.18-.43-.25l-.27-.03-.25-.09c-.12-.05-.36-.14-.48-.19l-.25-.09c-.1-.06-.31-.18-.41-.24l-.26-.03-.25-.1c-.12-.05-.36-.15-.48-.2l-.25-.09c-.1-.06-.31-.18-.42-.24l-.26-.03-.25-.09c-.12-.05-.36-.14-.49-.19l-.26-.09-.12-.23h-.29s-.29-.03-.29-.03l-.29-.08c-.39-.41-.98-.56-1.49-.32-.68-.04-1.35-.07-2.02-.1-.39-.42-.99-.49-1.5-.27-.16-.01-.47-.05-.63-.06-.29-.41-.66-.51-1.11-.3-.16-.01-.47-.03-.63-.04-.19-.09-.58-.26-.77-.34h-.32c-.18-.07-.54-.24-.72-.32l-.29-.05c-.11-.06-.32-.18-.43-.24l-.28-.02-.29-.05c-.18-.09-.54-.26-.72-.34h-.31c-.19-.08-.56-.26-.75-.35-.19-.09-.57-.27-.76-.36h-.31c-.18-.08-.55-.25-.73-.34l-.28-.05c-.11-.06-.33-.18-.43-.24l-.28-.02-.28-.06c-.18-.08-.55-.22-.73-.29l-.28-.1c-.13-.05-.39-.16-.52-.21l-.27-.11c-.18-.08-.52-.24-.7-.32l-.22-.16c-.09-.08-.28-.25-.37-.33l-.17-.18c-.1-.03-.3-.1-.4-.13-.07-.09-.2-.26-.27-.35l-.26-.1-.25-.12c-.19-.06-.58-.19-.77-.25l-.3-.07c-.3-.4-.68-.5-1.13-.3-.24-.02-.72-.07-.96-.09-.4-.4-.99-.5-1.5-.26-.58-.02-1.73-.05-2.31-.07l-.21-.24h-.33c-1.61-.03-3.23-.03-4.84-.08-.17-.01-.5-.04-.67-.06-.2-.08-.6-.25-.8-.33l-.28-.09c-.11-.07-.32-.19-.43-.26l-.27-.03-.25-.1c-.12-.06-.35-.17-.47-.22l-.24-.12c-.11-.06-.34-.17-.45-.23-.1-.07-.29-.2-.38-.27l-.25-.06c-.1-.07-.29-.2-.39-.27l-.25-.06c-.1-.07-.3-.2-.4-.27l-.26-.06c-.1-.07-.3-.2-.4-.27l-.26-.06c-.1-.07-.3-.2-.4-.27l-.26-.06c-.1-.07-.3-.2-.41-.26l-.26-.06c-.11-.06-.32-.19-.43-.26l-.28-.05-.27-.1c-.14-.05-.41-.14-.54-.19l-.29-.08-.09-.28h-.3c-.51-.15-1.04-.19-1.56-.06-.11.08-.33.23-.44.3l-.32.09c-.22.06-.65.18-.87.25l-.3.05-.29.05-.08.23-.23.08c-.09.08-.26.22-.35.3-.11.06-.34.17-.45.23l-.23.12c-.11.06-.33.18-.44.25l-.25.07c-.09.07-.28.21-.37.28l-.25.06c-.09.07-.28.2-.37.27l-.25.06c-.1.07-.29.2-.38.27-.12.06-.35.16-.47.21l-.26.1-.29.03c-.18.08-.55.25-.73.33-.16.03-.48.09-.64.12h-.33c-2.4-.02-4.8.03-7.2.03-.55-.02-1.11-.03-1.66-.05-.61-.24-1.29-.13-1.78.3-.16.01-.47.05-.62.07-.2.08-.6.23-.79.31l-.32.05c-.19.08-.57.24-.77.32l-.27.12c-.12.06-.36.18-.49.24l-.24.12c-.11.06-.33.19-.44.25l-.22.13c-.1.07-.3.2-.4.26-.1.07-.29.2-.38.27l-.22.1c-.08.08-.23.24-.31.31-.09.08-.27.23-.36.3-.09.08-.26.24-.35.32-.09.08-.26.24-.35.33-.09.08-.26.25-.35.33-.09.09-.26.26-.35.34-.09.08-.26.26-.35.34s-.26.26-.35.35-.26.26-.35.34c-.09.08-.26.25-.35.34-.09.08-.27.25-.36.33s-.27.24-.36.33c-.09.08-.28.23-.37.31l-.23.1c-.08.08-.24.24-.32.32-.09.07-.28.21-.38.29-.1.07-.29.21-.38.28l-.24.08c-.09.08-.26.23-.34.3-.11.07-.34.19-.45.26l-.25.13c-.13.06-.38.18-.51.25l-.29.12c-.21.06-.64.19-.85.26-.16.03-.49.08-.65.11l-.33.03c-.41-.19-.83-.22-1.26-.08l-.28-.07-.25-.09c-.11-.06-.33-.17-.43-.23-.06-.1-.19-.3-.25-.4,0-.13,0-.4,0-.52l.03-.26c.08-.09.24-.26.32-.35l.17-.17c.09-.08.27-.23.36-.3.09-.07.28-.21.38-.28l.2-.14c.1-.07.3-.21.4-.28.1-.07.3-.22.4-.29l.2-.15c.1-.08.29-.23.39-.31.09-.08.28-.24.37-.32.09-.08.27-.24.35-.32.09-.08.26-.25.35-.33s.26-.25.34-.33c.09-.08.26-.25.34-.34.08-.09.25-.26.34-.34.09-.09.26-.26.34-.34s.26-.26.34-.35.26-.26.35-.35c.09-.09.26-.26.35-.35.09-.09.26-.27.35-.36.08-.09.26-.27.34-.37.08-.09.25-.28.34-.37.08-.1.25-.29.33-.38.09-.08.26-.24.34-.32l.11-.22c.08-.09.24-.27.31-.36.08-.08.23-.25.3-.33.07-.08.21-.24.29-.32.07-.08.2-.24.27-.31.06-.08.19-.24.25-.31.06-.08.18-.24.24-.33.06-.08.19-.26.25-.34l.15-.18c.08-.1.25-.29.34-.39.75-.27-.15-.98-.26-.2l-.23.14c-.08.08-.25.25-.33.33-.11.05-.33.14-.44.18l-.22.1c-.1.06-.31.17-.41.22l-.23.07c-.09.07-.26.2-.35.27-.1.06-.32.19-.42.25l-.22.13c-.11.07-.33.19-.43.26l-.25.08c-.09.07-.28.22-.37.29-.11.06-.34.19-.45.26l-.24.13c-.12.07-.35.2-.46.26l-.24.13c-.11.07-.34.19-.45.26l-.25.08c-.09.07-.28.22-.37.29-.11.06-.33.19-.44.26l-.23.13c-.11.07-.33.19-.44.26l-.25.08c-.09.07-.28.22-.37.29-.11.07-.34.19-.45.26l-.24.13c-.11.07-.35.19-.46.26l-.24.12c-.11.06-.34.18-.46.23l-.25.08c-.08.08-.24.23-.32.31l-.27.03c-.09.07-.26.2-.35.27h-.29c-.11.05-.35.17-.46.23l-.29.11c-.21.05-.64.16-.86.21-.24,0-.72-.02-.95-.03-.13-.05-.38-.14-.5-.19h-.27c-.08-.11-.23-.32-.3-.42v-.26c.07-.11.21-.32.28-.43.09-.1.28-.29.37-.39l.18-.2c.08-.09.25-.28.33-.37.08-.09.25-.27.33-.35.08-.08.24-.25.32-.34s.24-.25.32-.33c.08-.08.24-.24.32-.32.08-.08.24-.24.33-.33.08-.08.25-.25.33-.33.09-.08.26-.25.34-.33.09-.08.27-.25.36-.33.09-.08.28-.25.37-.33.1-.08.29-.25.39-.33l.2-.17c.1-.08.3-.24.4-.33.1-.08.29-.24.39-.32.09-.08.29-.24.38-.32.1-.08.29-.24.39-.31l.23-.1c.08-.08.25-.25.33-.33.1-.08.3-.23.4-.3.1-.07.3-.22.4-.3l.24-.1c.09-.08.26-.24.35-.32.1-.07.31-.21.42-.28l.24-.09c.09-.08.26-.23.35-.3.11-.07.32-.2.42-.26l.24-.08c.09-.07.27-.21.36-.29l.24-.07c.09-.07.27-.21.36-.28.11-.06.32-.17.43-.23l.22-.12.26-.03h.25s.15-.29.15-.29l.32-.07c3.5-.08,7.03.13,10.51-.29.17-.02.5-.05.67-.07.17-.11.51-.33.69-.44l.23-.15c.1-.07.29-.21.38-.28.07-.07.22-.23.3-.3.07-.07.2-.23.26-.3.07-.08.19-.24.26-.33.08-.06.24-.18.32-.24l.11-.23c.06-.2.18-.6.24-.8.05-.16.15-.47.19-.62.07-.21.19-.62.26-.82l.06-.3c.08-.11.23-.32.31-.43,0-.15.02-.45.03-.61v-.32c.09-.19.26-.58.35-.77l.02-.32c.09-.19.27-.58.36-.77.08-.19.24-.56.32-.75l.11-.26c.06-.12.16-.36.21-.47l.1-.23c.05-.11.14-.33.19-.44l.09-.22c.05-.09.15-.26.2-.35l.02-.23c.06-.09.19-.27.26-.36-.1-.14-.31-.42-.42-.56l-.16-.26c-.19-.07-.55-.2-.74-.27-.05-.1-.15-.29-.2-.4l-.2-.16c-.08-.1-.23-.3-.31-.41,0-.15,0-.44-.01-.58v-.3c.06-.08.17-.23.23-.3l.05-.21c.07-.08.21-.23.28-.3.08-.07.25-.2.33-.27.11-.04.33-.11.44-.15.35-.05.7-.08,1.05-.1.12.03.36.09.47.12l.21.13c.09.08.27.24.36.32l.16.18c.07.1.21.29.28.39l.15.2.14.21c.1.05.29.16.39.21-.05.57.13.63.52.18l.27-.05c.12-.04.37-.12.49-.16l.24-.1.26.02.25.02.14-.19.23-.07c.08-.07.26-.22.34-.29l.25-.09c.12-.05.37-.14.5-.19l.27-.11c.19-.08.57-.25.76-.33.19-.08.58-.26.78-.34h.32c.49.15.86,0,1.09-.41.67.06,1.33.08,2,.12.87.49,1.72.55,2.54.17.43.03.87.06,1.3.09.27.4.65.52,1.12.37.24,0,.73-.02.97-.03.28.41.65.52,1.11.33h.31c.17.09.5.25.67.33h.31s.32,0,.32,0c.19.09.58.26.78.35.16,0,.48.02.64.03.19.09.58.26.78.35h.32c.19.09.57.28.76.37.19.08.56.23.75.3l.28.08c.1.06.31.19.41.25l.26.03.25.09c.12.05.36.16.48.21l.25.11c.12.06.37.18.5.24l.27.14c.2.07.59.2.79.26.09.08.27.24.35.32l.25.09c.1.06.3.19.4.25l.26.05c.1.07.29.2.38.27l.26.06c.1.06.31.17.42.23h.27c.07.1.21.28.28.37l.27.11c.2.08.59.24.79.31.12.08.37.22.5.29l.26.14c.12.07.36.2.48.27l.24.13c.11.06.34.19.45.25.09.07.27.2.37.27l.24.07c.09.07.27.2.35.27l.24.06c.1.06.32.17.42.23l.22.12c.11.06.33.17.44.23l.23.11c.11.06.33.17.44.23l.23.11c.11.06.34.17.46.23l.24.11c.12.06.37.17.49.23l.27.11c.19.09.57.25.76.34.2.09.6.26.79.35l.32.07c.21.05.63.16.84.21.39-.09.77-.18,1.16-.27.11-.05.34-.15.45-.2.09-.08.26-.23.35-.3.08-.08.23-.25.3-.33.07-.09.21-.27.28-.36l.14-.19c.07-.1.2-.29.27-.38.06-.1.19-.3.25-.4l.12-.21c.06-.1.17-.3.23-.4l.2-.11.02-.23.02-.22c.01-.1.05-.31.06-.41l.02-.2c.07-.07.19-.2.26-.27h-.24s-.21-.11-.21-.11l-.17-.16c-.09-.08-.28-.22-.38-.3l-.21-.14c-.11-.07-.32-.19-.43-.26l-.23-.13c-.11-.07-.32-.19-.43-.26-.09-.08-.27-.23-.36-.3l-.24-.08c-.1-.07-.32-.2-.42-.27-.09-.08-.26-.24-.34-.32l-.24-.09c-.1-.08-.3-.23-.4-.3-.1-.08-.3-.23-.4-.3-.08-.08-.25-.25-.33-.34l-.24-.11c-.09-.08-.28-.24-.38-.32-.09-.08-.28-.25-.37-.33-.09-.08-.27-.25-.36-.34-.09-.09-.26-.26-.35-.34-.09-.09-.26-.26-.34-.34-.08-.09-.25-.26-.33-.34-.08-.09-.24-.26-.33-.35-.08-.09-.24-.26-.32-.35-.08-.09-.23-.27-.3-.36l-.1-.22c-.08-.08-.24-.24-.32-.32-.07-.1-.21-.29-.28-.39-.07-.1-.2-.3-.26-.41l-.13-.22c-.06-.11-.18-.34-.24-.46l-.1-.25c-.04-.13-.11-.39-.15-.52-.08-.41-.17-.81-.25-1.21.41-.27.5-.63.28-1.09l-.03-.31c.09-.12.27-.37.36-.5l.18.09c.08.04.25.11.33.15.07.03.23.11.3.14s.23.11.31.14l.17.07.17.09.22-.05c.17-.03.52-.11.69-.15.52.01.7-.66.43-1.02h0Z"/>
    </g>
  </g>
</svg>